<?xml version="1.0" encoding="UTF-8"?>
<svg id="Capa_2" data-name="Capa 2" xmlns="http://www.w3.org/2000/svg" viewBox="0 0 700 700">
  <defs>
    <style>
      .cls-1 {
        fill: gray;
      }
    </style>
  </defs>
  <g id="Capa_1-2" data-name="Capa 1">
    <path class="cls-1" d="m682.74,86.45c-15.18-29.79-39.4-54.01-69.19-69.19C579.68,0,535.34,0,446.67,0h-193.34C164.66,0,120.32,0,86.45,17.26c-29.79,15.18-54.01,39.4-69.19,69.19C0,120.32,0,164.66,0,253.33v193.34c0,88.67,0,133.01,17.26,166.88,15.18,29.79,39.4,54.01,69.19,69.19,33.87,17.26,78.21,17.26,166.88,17.26h193.34c88.67,0,133.01,0,166.88-17.26,29.79-15.18,54.01-39.4,69.19-69.19,17.26-33.87,17.26-78.21,17.26-166.88v-193.34c0-88.67,0-133.01-17.26-166.88Zm-313.29,428.61h-66.68c-4.7,0-7.99-.17-9.86-3.38-6.27-12.53-12.53-24.97-18.79-37.33-6.26-12.36-12.91-24.96-19.95-37.81-7.05-12.83-14.01-25.84-20.9-39.01-6.26,12.85-13.23,25.69-19.96,38.53-6.73,12.85-13.39,25.61-19.95,38.29-6.58,12.69-13.31,25.29-20.2,37.81-1.25,2.89-3.45,3.19-6.57,3.19h-64.33c-2.53,0-2.84-1.91-1.41-4.16l90.63-152.67-88.29-153.16c-1.6-2.18-.22-4.51,2.35-4.33h66.21c2.87-.16,5.4.92,7.05,3.37,5.63,12.85,11.89,25.69,18.78,38.53,6.88,12.84,13.85,25.53,20.9,38.05,7.04,12.52,14.01,25.2,19.96,38.05,6.25-13.16,12.59-26.01,19.01-38.53,6.42-12.53,12.99-25.13,19.72-37.81,6.74-12.68,13.23-25.28,19.49-37.81.84-2.75,2.82-4.14,5.64-3.85h61.51c2.35,0,3.32,3.21,2.35,4.81l-87.34,147.86,93.45,157.01c1.94,3.56,0,4.35-2.82,4.35Zm223.99-12.53c-29.24,12.51-60.87,18.64-92.51,18.78-41.42.65-84.79-16.4-106.6-54.18-10.64-18.14-15.97-40.85-15.96-68.15-.18-22.1,5.33-43.87,15.96-63.09,27.45-49.06,82.73-67.44,135.24-62.61v-94.88c0-2.25.94-3.37,2.82-3.37h59.17c1.61-.24,3.05,1.23,2.81,2.88v284.64c0,11.75,1.17,23.45,1.89,35.16.11,2-1.05,3.98-2.82,4.82Zm-148.39-106.44c-1.02,46.76,39.29,79.07,84.52,65.5v-131.48c-42.89-11.92-84.53,20.75-84.52,65.98Z"/>
  </g>
</svg>