<?xml version="1.0" encoding="UTF-8"?>
<svg id="Capa_2" data-name="Capa 2" xmlns="http://www.w3.org/2000/svg" viewBox="0 0 700 700">
  <defs>
    <style>
      .cls-1 {
        fill: gray;
      }
    </style>
  </defs>
  <g id="Capa_1-2" data-name="Capa 1">
    <path class="cls-1" d="m284.75,254.48c11.15,41.98,24.9,83.09,37.09,124.74h-74.19c11.94-40.81,25.06-82.69,37.1-124.74Z"/>
    <path class="cls-1" d="m682.74,86.45c-15.18-29.79-39.4-54.01-69.19-69.19C579.68,0,535.34,0,446.67,0h-193.34C164.66,0,120.32,0,86.45,17.26c-29.79,15.18-54.01,39.4-69.19,69.19C0,120.32,0,164.66,0,253.33v193.34c0,88.67,0,133.01,17.26,166.88,15.18,29.79,39.4,54.01,69.19,69.19,33.87,17.26,78.21,17.26,166.88,17.26h193.34c88.67,0,133.01,0,166.88-17.26,29.79-15.18,54.01-39.4,69.19-69.19,17.26-33.87,17.26-78.21,17.26-166.88v-193.34c0-88.67,0-133.01-17.26-166.88Zm-253.83,428.11h-61.05c-2.14.24-4.18-1.23-4.7-3.37l-23.95-71.28h-108.47l-22.07,70.32c-.61,2.61-3.01,4.46-5.63,4.33h-54.94c-3.14,0-4.23-1.77-3.29-5.3l93.91-277.42c.95-2.88,1.88-6.18,2.82-9.87,1.23-6.42,1.86-12.95,1.88-19.5-.27-1.94,1.43-3.65,3.29-3.38h74.66c2.19,0,3.44.81,3.76,2.41l106.59,308.24c.94,3.21,0,4.82-2.81,4.82Zm99.07-4.82c0,3.21-1.25,4.82-3.75,4.82h-57.29c-2.82,0-4.23-1.61-4.23-4.82v-230.22c0-2.88,1.25-4.33,3.76-4.33h57.76c2.5,0,3.75,1.45,3.75,4.33v230.22Zm1.9-282.87c-1.74,4.72-4.38,9.03-7.77,12.68-3.54,3.58-7.77,6.37-12.41,8.2-4.65,1.82-9.62,2.64-14.59,2.4-4.79.19-9.56-.65-14.02-2.48-4.45-1.82-8.47-4.59-11.8-8.12-3.33-3.69-5.92-8.01-7.61-12.72-1.69-4.71-2.46-9.72-2.26-14.73-.17-4.97.68-9.92,2.5-14.52,1.83-4.61,4.57-8.77,8.07-12.21,3.46-3.41,7.55-6.08,12.02-7.86,4.47-1.77,9.24-2.62,14.04-2.5,11.27,0,20.12,3.45,26.53,10.36,3.24,3.58,5.76,7.79,7.41,12.38,1.65,4.59,2.41,9.46,2.22,14.35.19,5.03-.6,10.06-2.33,14.77Z"/>
  </g>
</svg>