<?xml version="1.0" encoding="UTF-8"?>
<svg id="Capa_2" data-name="Capa 2" xmlns="http://www.w3.org/2000/svg" viewBox="0 0 799.08 799.09">
  <defs>
    <style>
      .cls-1 {
        fill: gray;
      }
    </style>
  </defs>
  <g id="Capa_1-2" data-name="Capa 1">
    <path class="cls-1" d="m399.54,0C178.88,0,0,178.89,0,399.55s178.88,399.54,399.54,399.54,399.54-178.88,399.54-399.54S620.2,0,399.54,0Zm-1.28,746.36c-191.21,0-346.21-155.01-346.21-346.22S207.05,53.93,398.26,53.93s346.21,155,346.21,346.21-155,346.22-346.21,346.22Z"/>
    <path class="cls-1" d="m597.38,357.44c-2.61-16.2-12.57-64.85-55.12-106.29-40.05-39.01-85.44-48.72-102-51.45-50.98-.05-101.96-.11-152.93-.16-17.42-.02-31.54,14.09-31.55,31.5l-.07,336.96c0,18.15,14.69,32.87,32.84,32.89,50.57.07,101.14.14,151.71.2,16.56-2.85,63.57-13.17,104.3-54.28,38.91-39.29,49.44-83.84,52.55-100.59,1.93-12.94,3.34-28.06,3.36-44.95.02-16.41-1.28-31.15-3.09-43.83Zm-86.78,145.28c-32.41,36.2-74.24,41.16-83.75,42.04h-112.85v-286.97h112.85c8.58.19,49.08,2.02,81.71,34.89,28.96,29.18,33.06,64.03,33.87,73.7.23,18.27.45,36.54.68,54.81-.33,10.37-2.76,48.3-32.51,81.53Z"/>
  </g>
</svg>