<?xml version="1.0" encoding="UTF-8"?>
<svg id="Capa_2" data-name="Capa 2" xmlns="http://www.w3.org/2000/svg" viewBox="0 0 700 700">
  <defs>
    <style>
      .cls-1 {
        fill: gray;
      }
    </style>
  </defs>
  <g id="Capa_1-2" data-name="Capa 1">
    <g id="SVGRepo_iconCarrier" data-name="SVGRepo iconCarrier">
      <path class="cls-1" d="m667.2,0H32.8C14.69,0,0,14.69,0,32.8v634.4c0,18.11,14.69,32.8,32.8,32.8h634.4c18.11,0,32.8-14.69,32.8-32.8V32.8c0-18.11-14.69-32.8-32.8-32.8Zm-289.92,353.03h-100v281.35h-79.28v-281.35h-99.55v-63.18h278.83v63.18Zm251.7,232.39c-7.08,12.83-17.22,23.71-29.53,31.66-13.26,8.45-27.96,14.38-43.37,17.5-17.17,3.59-34.67,5.35-52.2,5.27-18,.07-35.96-1.53-53.65-4.8-15.32-2.66-30.17-7.5-44.1-14.37v-76.7c13.36,11.33,28.64,20.17,45.12,26.12,15.77,5.76,32.43,8.72,49.23,8.75,8.55.12,17.09-.76,25.45-2.63,6.41-1.41,12.54-3.88,18.15-7.3,4.48-2.72,8.21-6.5,10.87-11.02,2.39-4.2,3.63-8.96,3.6-13.8.07-6.45-1.95-12.76-5.75-17.97-4.32-5.76-9.62-10.71-15.65-14.63-7.48-4.96-15.35-9.28-23.55-12.92-9.08-4.15-18.87-8.4-29.37-12.73-23.02-8.55-43.58-22.62-59.88-40.97-13.29-16.56-20.28-37.29-19.72-58.51-.44-16.04,3.27-31.93,10.77-46.12,7.08-12.78,17.12-23.68,29.28-31.78,13.08-8.62,27.61-14.83,42.9-18.32,16.9-4,34.22-5.97,51.6-5.87,15.89-.15,31.77.93,47.5,3.22,13.02,1.99,25.8,5.34,38.12,10v71.57c-5.92-4.08-12.2-7.62-18.77-10.55-6.78-3.01-13.76-5.52-20.9-7.5-7.03-1.96-14.18-3.44-21.4-4.42-6.7-.94-13.45-1.43-20.2-1.45-8.04-.08-16.06.76-23.9,2.5-6.39,1.37-12.52,3.76-18.15,7.07-4.61,2.71-8.54,6.44-11.48,10.9-2.71,4.27-4.12,9.23-4.05,14.28-.08,5.49,1.5,10.87,4.53,15.45,3.5,5.04,7.87,9.43,12.9,12.95,6.41,4.57,13.21,8.57,20.32,11.97,8,3.92,17,7.95,27,12.1,12.71,5.27,25.05,11.4,36.93,18.35,10.31,6,19.75,13.38,28.07,21.93,7.75,8.04,13.84,17.53,17.93,27.92,9.68,27.8,8.01,58.29-4.65,84.85Z"/>
    </g>
  </g>
</svg>